<svg xmlns="http://www.w3.org/2000/svg" viewBox="0 0 116 116">
  <circle fill="#61DAFB" cx="58" cy="58" r="58"/>
  <g fill="#000000">
    <path d="M81.1,50.8c0-12.8-10.3-23.1-23.1-23.1c-6.4,0-12.1,2.5-16.8,6.4l-0.1-0.1l-0.1-0.1l-0.1-0.1c-5.2-4-11.4-6.4-18.2-6.4C20.2,27.7,9.9,38,9.9,50.8c0,16.4,13.3,29.7,29.7,29.7c0,0,0,0,0,0c12.8,0,23.1-10.3,23.1-23.1C81.1,63.6,81.1,57.2,81.1,50.8z"/>
    <path d="M58,81.1c-12.8,0-23.1-10.3-23.1-23.1c0-6.4,2.5-12.1,6.4-16.8l0.1,0.1l0.1,0.1l0.1,0.1c4-5.2,6.4-11.4,6.4-18.2c0-16.4-13.3-29.7-29.7-29.7c0,0,0,0,0,0c-12.8,0-23.1,10.3-23.1,23.1c0,12.8,10.3,23.1,23.1,23.1c0,0,0,0,0,0c6.4,0,12.1-2.5,16.8-6.4l0.1,0.1l0.1,0.1l0.1,0.1c5.2,4,11.4,6.4,18.2,6.4c16.4,0,29.7-13.3,29.7-29.7C81.1,70.8,70.8,81.1,58,81.1z"/>
  </g>
</svg>